<svg width="32" height="29" viewBox="0 0 32 29" fill="none" xmlns="http://www.w3.org/2000/svg">
<g clip-path="url(#clip0_1_611)">
<path d="M22.5989 0.520001C21.3511 0.508678 18.98 0.703438 17.4083 2.14828C16.387 3.08585 16.1016 4.3767 16.0745 5.4909C16.0518 6.36959 16.1922 7.13957 16.2579 7.53135C16.464 7.20524 16.7335 6.77043 17.0641 6.28126C18.1353 4.69148 19.8315 2.53554 21.9875 1.76103C21.9875 1.76103 19.2744 3.60445 17.2634 6.32429C16.9577 6.73872 16.6678 7.17127 16.4051 7.62194C22.916 7.55173 23.4346 0.563029 23.4346 0.563029C23.4346 0.563029 23.1107 0.52453 22.5989 0.520001Z" fill="#99DD05"/>
<path d="M12.1498 3.61578C12.8247 3.61125 14.1087 3.71542 14.958 4.49673C15.5106 5.00401 15.6646 5.70378 15.6804 6.30618C15.6917 6.78176 15.617 7.19845 15.5808 7.41133C15.4698 7.23469 15.3226 6.99916 15.146 6.7342C14.5662 5.87363 13.649 4.70734 12.4805 4.28838C12.4805 4.28838 13.948 5.28709 15.0373 6.75685C15.2026 6.98105 15.3611 7.2143 15.5015 7.45889C11.9777 7.42039 11.6969 3.64069 11.6969 3.64069C11.6969 3.64069 11.8713 3.62031 12.1498 3.61804V3.61578Z" fill="#99DD05"/>
<path d="M5.22228 6.41035C6.3546 7.08068 10.2838 9.58991 12.1498 14.751C14.1858 20.3855 12.331 25.2205 11.8668 26.3438C10.7843 26.2351 8.1482 25.8184 5.64577 23.7983C2.61114 21.348 1.76642 18.1457 1.54675 17.1538" stroke="#99DD05" stroke-width="3.17051" stroke-miterlimit="10"/>
<path d="M26.6979 6.41035C25.5656 7.08068 21.6364 9.58991 19.7704 14.751C17.7345 20.3855 19.5892 25.2205 20.0535 26.3438C21.136 26.2351 23.772 25.8184 26.2744 23.7983C29.3091 21.348 30.1538 18.1457 30.3735 17.1538" stroke="#99DD05" stroke-width="3.17051" stroke-miterlimit="10"/>
</g>
<defs>
<clipPath id="clip0_1_611">
<rect width="31.9202" height="27.52" fill="white" transform="translate(0 0.519997)"/>
</clipPath>
</defs>
</svg>
